<svg width="28" height="28" viewBox="0 0 28 28" fill="none" xmlns="http://www.w3.org/2000/svg">
<path d="M13.7497 2.35547C7.52227 2.35547 2.48853 7.423 2.48853 13.6166C2.48853 16.6033 3.67497 19.4676 5.78685 21.5795C6.83254 22.6252 8.07397 23.4547 9.44024 24.0206C10.8065 24.5865 12.2709 24.8778 13.7497 24.8778C16.7364 24.8778 19.6007 23.6914 21.7126 21.5795C23.8244 19.4676 25.0109 16.6033 25.0109 13.6166C25.0109 12.1378 24.7196 10.6734 24.1537 9.30718C23.5877 7.94091 22.7583 6.69949 21.7126 5.65379C20.6669 4.60809 19.4254 3.7786 18.0592 3.21267C16.6929 2.64675 15.2285 2.35547 13.7497 2.35547ZM17.6911 9.11217C18.1391 9.11217 18.5688 9.29014 18.8855 9.60692C19.2023 9.92371 19.3803 10.3534 19.3803 10.8014C19.3803 11.2493 19.2023 11.679 18.8855 11.9958C18.5688 12.3126 18.1391 12.4905 17.6911 12.4905C17.2431 12.4905 16.8135 12.3126 16.4967 11.9958C16.1799 11.679 16.0019 11.2493 16.0019 10.8014C16.0019 10.3534 16.1799 9.92371 16.4967 9.60692C16.8135 9.29014 17.2431 9.11217 17.6911 9.11217ZM9.80829 9.11217C10.2563 9.11217 10.6859 9.29014 11.0027 9.60692C11.3195 9.92371 11.4975 10.3534 11.4975 10.8014C11.4975 11.2493 11.3195 11.679 11.0027 11.9958C10.6859 12.3126 10.2563 12.4905 9.80829 12.4905C9.36029 12.4905 8.93064 12.3126 8.61386 11.9958C8.29708 11.679 8.11911 11.2493 8.11911 10.8014C8.11911 10.3534 8.29708 9.92371 8.61386 9.60692C8.93064 9.29014 9.36029 9.11217 9.80829 9.11217ZM13.7497 19.8103C11.1258 19.8103 8.89614 18.1662 7.99524 15.8689H19.5042C18.592 18.1662 16.3736 19.8103 13.7497 19.8103Z" fill="#F9D16B"/>
</svg>
