<svg width="34" height="34" viewBox="0 0 34 34" fill="none" xmlns="http://www.w3.org/2000/svg">
<path fill-rule="evenodd" clip-rule="evenodd" d="M19.8199 31.0549H14.2643C9.02689 31.0549 6.40746 31.0549 4.78109 29.4271C3.15332 27.8008 3.15332 25.1813 3.15332 19.9439V14.3884C3.15332 9.15091 3.15332 6.53149 4.78109 4.90511C6.40746 3.27734 9.04078 3.27734 14.306 3.27734C15.1477 3.27734 15.8213 3.27734 16.3893 3.30095C16.3713 3.41206 16.3616 3.52456 16.3616 3.63984L16.3477 7.57592C16.3477 9.09952 16.3477 10.4467 16.4935 11.5314C16.6518 12.7078 17.0143 13.8842 17.9754 14.8453C18.9338 15.8036 20.1115 16.1675 21.2879 16.3259C22.3726 16.4717 23.7198 16.4717 25.2434 16.4717H30.8712C30.9309 17.2134 30.9309 18.1245 30.9309 19.3369V19.9439C30.9309 25.1813 30.9309 27.8008 29.3031 29.4271C27.6767 31.0549 25.0573 31.0549 19.8199 31.0549Z" fill="black"/>
<path d="M27.2531 11.0784L21.7531 6.1298C20.1878 4.72009 19.4059 4.01454 18.4434 3.64648L18.4309 7.44368C18.4309 10.7173 18.4309 12.3548 19.4476 13.3714C20.4642 14.3881 22.1017 14.3881 25.3753 14.3881H30.3475C29.8447 13.4103 28.9419 12.5992 27.2531 11.0784Z" fill="black"/>
</svg>
