<svg width="50" height="50" viewBox="0 0 50 50" fill="none" xmlns="http://www.w3.org/2000/svg">
<circle cx="25" cy="25" r="25" fill="#FDE076"/>
<mask id="path-2-inside-1_5_1649" fill="white">
<path d="M29.0833 19C27.6333 19 26.2417 19.675 25.3333 20.7417C24.425 19.675 23.0333 19 21.5833 19C19.0167 19 17 21.0167 17 23.5833C17 26.7333 19.8333 29.3 24.125 33.2L25.3333 34.2917L26.5417 33.1917C30.8333 29.3 33.6667 26.7333 33.6667 23.5833C33.6667 21.0167 31.65 19 29.0833 19ZM25.4167 31.9583L25.3333 32.0417L25.25 31.9583C21.2833 28.3667 18.6667 25.9917 18.6667 23.5833C18.6667 21.9167 19.9167 20.6667 21.5833 20.6667C22.8667 20.6667 24.1167 21.4917 24.5583 22.6333H26.1167C26.55 21.4917 27.8 20.6667 29.0833 20.6667C30.75 20.6667 32 21.9167 32 23.5833C32 25.9917 29.3833 28.3667 25.4167 31.9583Z"/>
</mask>
<path d="M29.0833 19C27.6333 19 26.2417 19.675 25.3333 20.7417C24.425 19.675 23.0333 19 21.5833 19C19.0167 19 17 21.0167 17 23.5833C17 26.7333 19.8333 29.3 24.125 33.2L25.3333 34.2917L26.5417 33.1917C30.8333 29.3 33.6667 26.7333 33.6667 23.5833C33.6667 21.0167 31.65 19 29.0833 19ZM25.4167 31.9583L25.3333 32.0417L25.25 31.9583C21.2833 28.3667 18.6667 25.9917 18.6667 23.5833C18.6667 21.9167 19.9167 20.6667 21.5833 20.6667C22.8667 20.6667 24.1167 21.4917 24.5583 22.6333H26.1167C26.55 21.4917 27.8 20.6667 29.0833 20.6667C30.75 20.6667 32 21.9167 32 23.5833C32 25.9917 29.3833 28.3667 25.4167 31.9583Z" fill="black"/>
<path d="M25.3333 20.7417L23.0493 22.6867L25.3333 25.3689L27.6174 22.6867L25.3333 20.7417ZM24.125 33.2L22.1074 35.4202L22.1139 35.4261L24.125 33.2ZM25.3333 34.2917L23.3222 36.5177L25.341 38.3416L27.3529 36.5101L25.3333 34.2917ZM26.5417 33.1917L24.5264 30.9693L24.5221 30.9732L26.5417 33.1917ZM25.4167 31.9583L23.4031 29.7345L23.3479 29.7844L23.2953 29.837L25.4167 31.9583ZM25.3333 32.0417L23.212 34.163L25.3333 36.2843L27.4547 34.163L25.3333 32.0417ZM25.25 31.9583L27.3713 29.837L27.3187 29.7844L27.2636 29.7345L25.25 31.9583ZM24.5583 22.6333L21.7604 23.7157L22.5022 25.6333H24.5583V22.6333ZM26.1167 22.6333V25.6333H28.1868L28.9214 23.6979L26.1167 22.6333ZM29.0833 16C26.725 16 24.5084 17.0832 23.0493 18.7967L27.6174 22.6867C27.9749 22.2668 28.5417 22 29.0833 22V16ZM27.6174 18.7967C26.1583 17.0832 23.9417 16 21.5833 16V22C22.125 22 22.6917 22.2668 23.0493 22.6867L27.6174 18.7967ZM21.5833 16C17.3598 16 14 19.3598 14 23.5833H20C20 22.6735 20.6735 22 21.5833 22V16ZM14 23.5833C14 26.1437 15.1786 28.2329 16.6303 30.009C18.0476 31.7429 20.0226 33.5257 22.1074 35.4202L26.1426 30.9798C23.9357 28.9743 22.3483 27.5238 21.2759 26.2118C20.2381 24.9421 20 24.1729 20 23.5833H14ZM22.1139 35.4261L23.3222 36.5177L27.3445 32.0656L26.1361 30.9739L22.1139 35.4261ZM27.3529 36.5101L28.5612 35.4101L24.5221 30.9732L23.3138 32.0732L27.3529 36.5101ZM28.5569 35.414C30.6424 33.5229 32.6178 31.7423 34.0357 30.0087C35.4881 28.2331 36.6667 26.1438 36.6667 23.5833H30.6667C30.6667 24.1729 30.4286 24.9419 29.3914 26.21C28.3197 27.5202 26.7326 28.9687 24.5264 30.9693L28.5569 35.414ZM36.6667 23.5833C36.6667 19.3598 33.3069 16 29.0833 16V22C29.9931 22 30.6667 22.6735 30.6667 23.5833H36.6667ZM23.2953 29.837L23.212 29.9203L27.4547 34.163L27.538 34.0797L23.2953 29.837ZM27.4547 29.9203L27.3713 29.837L23.1287 34.0797L23.212 34.163L27.4547 29.9203ZM27.2636 29.7345C25.2277 27.8911 23.7479 26.5424 22.7501 25.3765C21.7231 24.1765 21.6667 23.6802 21.6667 23.5833H15.6667C15.6667 25.8948 16.9185 27.7902 18.1916 29.2777C19.4937 30.7993 21.3056 32.4339 23.2364 34.1822L27.2636 29.7345ZM21.6667 23.5833C21.6667 23.5444 21.6733 23.5391 21.6663 23.5564C21.6595 23.573 21.6453 23.5974 21.6213 23.6213C21.5974 23.6453 21.573 23.6595 21.5564 23.6663C21.5391 23.6733 21.5444 23.6667 21.5833 23.6667V17.6667C18.2598 17.6667 15.6667 20.2598 15.6667 23.5833H21.6667ZM21.5833 23.6667C21.5831 23.6667 21.5874 23.6667 21.5961 23.668C21.6049 23.6694 21.6173 23.6721 21.6326 23.6768C21.6647 23.6869 21.7 23.7033 21.7326 23.7248C21.7654 23.7465 21.7831 23.7651 21.7882 23.7713C21.7931 23.777 21.7778 23.7608 21.7604 23.7157L27.3563 21.5509C26.4382 19.1779 24.0227 17.6667 21.5833 17.6667V23.6667ZM24.5583 25.6333H26.1167V19.6333H24.5583V25.6333ZM28.9214 23.6979C28.9025 23.7477 28.885 23.7677 28.8875 23.7646C28.8904 23.7611 28.906 23.7441 28.9374 23.7233C28.9685 23.7027 29.0029 23.6866 29.0346 23.6767C29.0496 23.672 29.0618 23.6694 29.0706 23.668C29.0793 23.6667 29.0836 23.6667 29.0833 23.6667V17.6667C26.6485 17.6667 24.2201 19.176 23.3119 21.5688L28.9214 23.6979ZM29.0833 23.6667C29.1222 23.6667 29.1276 23.6733 29.1103 23.6663C29.0937 23.6595 29.0693 23.6453 29.0453 23.6213C29.0214 23.5974 29.0071 23.573 29.0004 23.5564C28.9933 23.5391 29 23.5444 29 23.5833H35C35 20.2598 32.4069 17.6667 29.0833 17.6667V23.6667ZM29 23.5833C29 23.6802 28.9435 24.1765 27.9166 25.3765C26.9187 26.5424 25.439 27.8911 23.4031 29.7345L27.4303 34.1822C29.361 32.4339 31.1729 30.7993 32.4751 29.2777C33.7481 27.7902 35 25.8948 35 23.5833H29Z" fill="black" mask="url(#path-2-inside-1_5_1649)"/>
</svg>
