<svg width="17" height="16" viewBox="0 0 17 16" fill="none" xmlns="http://www.w3.org/2000/svg">
<mask id="path-1-inside-1_5_1659" fill="white">
<path d="M12.0833 0C10.6333 0 9.24167 0.675 8.33333 1.74167C7.425 0.675 6.03333 0 4.58333 0C2.01667 0 0 2.01667 0 4.58333C0 7.73333 2.83333 10.3 7.125 14.2L8.33333 15.2917L9.54167 14.1917C13.8333 10.3 16.6667 7.73333 16.6667 4.58333C16.6667 2.01667 14.65 0 12.0833 0ZM8.41667 12.9583L8.33333 13.0417L8.25 12.9583C4.28333 9.36667 1.66667 6.99167 1.66667 4.58333C1.66667 2.91667 2.91667 1.66667 4.58333 1.66667C5.86667 1.66667 7.11667 2.49167 7.55833 3.63333H9.11667C9.55 2.49167 10.8 1.66667 12.0833 1.66667C13.75 1.66667 15 2.91667 15 4.58333C15 6.99167 12.3833 9.36667 8.41667 12.9583Z"/>
</mask>
<path d="M12.0833 0C10.6333 0 9.24167 0.675 8.33333 1.74167C7.425 0.675 6.03333 0 4.58333 0C2.01667 0 0 2.01667 0 4.58333C0 7.73333 2.83333 10.3 7.125 14.2L8.33333 15.2917L9.54167 14.1917C13.8333 10.3 16.6667 7.73333 16.6667 4.58333C16.6667 2.01667 14.65 0 12.0833 0ZM8.41667 12.9583L8.33333 13.0417L8.25 12.9583C4.28333 9.36667 1.66667 6.99167 1.66667 4.58333C1.66667 2.91667 2.91667 1.66667 4.58333 1.66667C5.86667 1.66667 7.11667 2.49167 7.55833 3.63333H9.11667C9.55 2.49167 10.8 1.66667 12.0833 1.66667C13.75 1.66667 15 2.91667 15 4.58333C15 6.99167 12.3833 9.36667 8.41667 12.9583Z" fill="black"/>
<path d="M8.33333 1.74167L6.04928 3.68668L8.33333 6.36888L10.6174 3.68668L8.33333 1.74167ZM7.125 14.2L5.1074 16.4202L5.11387 16.4261L7.125 14.2ZM8.33333 15.2917L6.3222 17.5177L8.341 19.3416L10.3529 17.5101L8.33333 15.2917ZM9.54167 14.1917L7.52644 11.9693L7.52213 11.9732L9.54167 14.1917ZM8.41667 12.9583L6.40307 10.7345L6.34794 10.7844L6.29535 10.837L8.41667 12.9583ZM8.33333 13.0417L6.21201 15.163L8.33333 17.2843L10.4547 15.163L8.33333 13.0417ZM8.25 12.9583L10.3713 10.837L10.3187 10.7844L10.2636 10.7345L8.25 12.9583ZM7.55833 3.63333L4.76041 4.71574L5.50225 6.63333H7.55833V3.63333ZM9.11667 3.63333V6.63333H11.1868L11.9214 4.69791L9.11667 3.63333ZM12.0833 -3C9.72497 -3 7.50839 -1.91681 6.04928 -0.20335L10.6174 3.68668C10.9749 3.26681 11.5417 3 12.0833 3V-3ZM10.6174 -0.20335C9.15827 -1.91681 6.94169 -3 4.58333 -3V3C5.12497 3 5.69173 3.26681 6.04928 3.68668L10.6174 -0.20335ZM4.58333 -3C0.359812 -3 -3 0.359812 -3 4.58333H3C3 3.67352 3.67352 3 4.58333 3V-3ZM-3 4.58333C-3 7.14374 -1.8214 9.23291 -0.369667 11.009C1.04755 12.7429 3.02262 14.5257 5.10741 16.4202L9.14259 11.9798C6.93572 9.97432 5.34828 8.52379 4.27592 7.21183C3.23807 5.94209 3 5.17292 3 4.58333H-3ZM5.11387 16.4261L6.3222 17.5177L10.3445 13.0656L9.13613 11.9739L5.11387 16.4261ZM10.3529 17.5101L11.5612 16.4101L7.52213 11.9732L6.31379 13.0732L10.3529 17.5101ZM11.5569 16.414C13.6424 14.5229 15.6178 12.7423 17.0357 11.0087C18.4881 9.23308 19.6667 7.14378 19.6667 4.58333H13.6667C13.6667 5.17288 13.4286 5.94192 12.3914 7.21001C11.3197 8.52022 9.73264 9.96874 7.52644 11.9693L11.5569 16.414ZM19.6667 4.58333C19.6667 0.359812 16.3069 -3 12.0833 -3V3C12.9931 3 13.6667 3.67352 13.6667 4.58333H19.6667ZM6.29535 10.837L6.21201 10.9203L10.4547 15.163L10.538 15.0797L6.29535 10.837ZM10.4547 10.9203L10.3713 10.837L6.12868 15.0797L6.21201 15.163L10.4547 10.9203ZM10.2636 10.7345C8.22769 8.89107 6.74792 7.54239 5.7501 6.37646C4.72313 5.17646 4.66667 4.68017 4.66667 4.58333H-1.33333C-1.33333 6.89483 -0.0814624 8.7902 1.19157 10.2777C2.49374 11.7993 4.30564 13.4339 6.2364 15.1822L10.2636 10.7345ZM4.66667 4.58333C4.66667 4.54444 4.67334 4.5391 4.6663 4.55637C4.65954 4.57295 4.64527 4.59737 4.62132 4.62132C4.59737 4.64527 4.57295 4.65954 4.55637 4.6663C4.5391 4.67334 4.54444 4.66667 4.58333 4.66667V-1.33333C1.25981 -1.33333 -1.33333 1.25981 -1.33333 4.58333H4.66667ZM4.58333 4.66667C4.58309 4.66667 4.58738 4.66666 4.59613 4.66803C4.60494 4.66941 4.61729 4.67205 4.63258 4.67683C4.66471 4.68687 4.70005 4.70331 4.73262 4.72484C4.76539 4.74649 4.78309 4.76512 4.78824 4.77126C4.79308 4.77704 4.77784 4.76081 4.76041 4.71574L10.3563 2.55092C9.43823 0.177896 7.02269 -1.33333 4.58333 -1.33333V4.66667ZM7.55833 6.63333H9.11667V0.633333H7.55833V6.63333ZM11.9214 4.69791C11.9025 4.74767 11.885 4.76766 11.8875 4.76458C11.8904 4.7611 11.906 4.74409 11.9374 4.72334C11.9685 4.70272 12.0029 4.68664 12.0346 4.67672C12.0496 4.67201 12.0618 4.6694 12.0706 4.66802C12.0793 4.66666 12.0836 4.66667 12.0833 4.66667V-1.33333C9.64851 -1.33333 7.22012 0.175961 6.31191 2.56875L11.9214 4.69791ZM12.0833 4.66667C12.1222 4.66667 12.1276 4.67334 12.1103 4.6663C12.0937 4.65954 12.0693 4.64527 12.0453 4.62132C12.0214 4.59737 12.0071 4.57295 12.0004 4.55637C11.9933 4.5391 12 4.54444 12 4.58333H18C18 1.25981 15.4069 -1.33333 12.0833 -1.33333V4.66667ZM12 4.58333C12 4.68017 11.9435 5.17646 10.9166 6.37646C9.91875 7.54239 8.43897 8.89107 6.40307 10.7345L10.4303 15.1822C12.361 13.4339 14.1729 11.7993 15.4751 10.2777C16.7481 8.7902 18 6.89483 18 4.58333H12Z" fill="black" mask="url(#path-1-inside-1_5_1659)"/>
</svg>
